<svg width="16" height="16" viewBox="0 0 16 16" fill="none" xmlns="http://www.w3.org/2000/svg">
<path d="M7.49621 2.78263C7.65053 2.33868 7.72768 2.11671 7.84178 2.05519C7.94052 2.00195 8.05943 2.00195 8.15818 2.05519C8.27227 2.11671 8.34943 2.33868 8.50374 2.78263L9.52392 5.71755C9.56784 5.8439 9.5898 5.90708 9.62938 5.95413C9.66433 5.99569 9.70891 6.02808 9.75924 6.04848C9.81622 6.07158 9.88309 6.07294 10.0168 6.07567L13.1234 6.13897C13.5933 6.14855 13.8282 6.15334 13.922 6.24284C14.0031 6.3203 14.0399 6.43338 14.0198 6.54375C13.9965 6.67127 13.8092 6.81325 13.4347 7.09719L10.9587 8.97439C10.8521 9.0552 10.7988 9.09561 10.7663 9.14778C10.7375 9.19387 10.7205 9.24628 10.7167 9.30045C10.7123 9.36177 10.7317 9.42579 10.7704 9.55383L11.6702 12.5279C11.8063 12.9777 11.8743 13.2027 11.8182 13.3195C11.7696 13.4206 11.6734 13.4905 11.5622 13.5055C11.4337 13.5228 11.2408 13.3885 10.8551 13.1201L8.30461 11.3453C8.19481 11.2689 8.13991 11.2307 8.08024 11.2159C8.02753 11.2028 7.97242 11.2028 7.91971 11.2159C7.86005 11.2307 7.80515 11.2689 7.69535 11.3453L5.1449 13.1201C4.75911 13.3885 4.56622 13.5228 4.43775 13.5055C4.32657 13.4905 4.23037 13.4206 4.18178 13.3195C4.12564 13.2027 4.19369 12.9777 4.32979 12.5279L5.22955 9.55383C5.26829 9.42579 5.28765 9.36177 5.28329 9.30045C5.27944 9.24628 5.26241 9.19387 5.23369 9.14778C5.20117 9.09561 5.14787 9.0552 5.04128 8.97439L2.56525 7.0972C2.19072 6.81325 2.00345 6.67127 1.9802 6.54375C1.96008 6.43338 1.99683 6.3203 2.07798 6.24284C2.17174 6.15334 2.40669 6.14855 2.87659 6.13897L5.98313 6.07567C6.11687 6.07294 6.18374 6.07158 6.24071 6.04848C6.29104 6.02808 6.33562 5.99569 6.37058 5.95413C6.41015 5.90708 6.43211 5.8439 6.47603 5.71755L7.49621 2.78263Z" fill="#EBE100" stroke="#EBE100" stroke-width="1.33333" stroke-linecap="round" stroke-linejoin="round"/>
</svg>
